<svg xmlns="http://www.w3.org/2000/svg" viewBox="0 0 512 512">
  <defs>
    <style>
      .circle { fill-opacity: 0.9; }
    </style>
  </defs>

  <!-- Background -->
  <rect width="512" height="512" fill="#0f0f0f"/>

  <!-- Brain outline -->
  <path d="M 256 80 C 293 80 320 107 320 147 C 320 173 310 195 293 213 L 293 267 C 293 307 267 333 227 333 L 218 333 C 178 333 152 307 152 267 L 152 213 C 135 195 125 173 125 147 C 125 107 152 80 189 80 Q 224 67 256 80 Z" fill="none" stroke="#FF6B6B" stroke-width="8" stroke-linecap="round" stroke-linejoin="round"/>

  <!-- Color Grid - 2x2 -->
  <g class="color-grid">
    <!-- Red circle -->
    <circle cx="192" cy="320" r="58" class="circle" fill="#FF6B6B"/>

    <!-- Blue circle -->
    <circle cx="320" cy="320" r="58" class="circle" fill="#4ECDC4"/>

    <!-- Green circle -->
    <circle cx="192" cy="415" r="58" class="circle" fill="#2ECC71"/>

    <!-- Yellow circle -->
    <circle cx="320" cy="415" r="58" class="circle" fill="#FFE66D"/>
  </g>

  <!-- Highlight on brain -->
  <circle cx="227" cy="147" r="22" fill="#FFE66D" opacity="0.7"/>
  <circle cx="208" cy="173" r="14" fill="#4ECDC4" opacity="0.7"/>
  <circle cx="272" cy="160" r="16" fill="#2ECC71" opacity="0.7"/>
</svg>
