<svg xmlns="http://www.w3.org/2000/svg" viewBox="0 0 192 192">
  <defs>
    <style>
      .circle { fill-opacity: 0.9; }
    </style>
  </defs>

  <!-- Background -->
  <rect width="192" height="192" fill="#0f0f0f"/>

  <!-- Brain outline -->
  <path d="M 96 30 C 110 30 120 40 120 55 C 120 65 115 73 110 80 L 110 100 C 110 115 100 125 85 125 L 82 125 C 67 125 57 115 57 100 L 57 80 C 52 73 47 65 47 55 C 47 40 57 30 72 30 Q 84 25 96 30 Z" fill="none" stroke="#FF6B6B" stroke-width="3" stroke-linecap="round" stroke-linejoin="round"/>

  <!-- Color Grid - 2x2 -->
  <g class="color-grid">
    <!-- Red circle -->
    <circle cx="72" cy="120" r="22" class="circle" fill="#FF6B6B"/>

    <!-- Blue circle -->
    <circle cx="120" cy="120" r="22" class="circle" fill="#4ECDC4"/>

    <!-- Green circle -->
    <circle cx="72" cy="155" r="22" class="circle" fill="#2ECC71"/>

    <!-- Yellow circle -->
    <circle cx="120" cy="155" r="22" class="circle" fill="#FFE66D"/>
  </g>

  <!-- Highlight on brain -->
  <circle cx="85" cy="55" r="8" fill="#FFE66D" opacity="0.7"/>
  <circle cx="78" cy="65" r="5" fill="#4ECDC4" opacity="0.7"/>
  <circle cx="102" cy="60" r="6" fill="#2ECC71" opacity="0.7"/>
</svg>
